<svg viewBox="0 0 64 64" xml:space="preserve" xmlns="http://www.w3.org/2000/svg"><g fill="#ffffff" class="fill-37474f"><path d="M33 5.025V22.05a10.004 10.004 0 0 1 8.949 8.949h17.026C58.461 16.885 47.116 5.54 33 5.025zm1 16.159V6.083C46.71 7.057 56.944 17.291 57.918 30H42.816A11.024 11.024 0 0 0 34 21.184zM57.959 34a26.001 26.001 0 0 1-6.39 15.135L40.896 38.471A10.86 10.86 0 0 0 42.817 34H58m.975-1H41.949a9.96 9.96 0 0 1-2.403 5.547l12.036 12.035A26.913 26.913 0 0 0 58.975 33z"></path><path d="M30 6v15.183c-5.19.944-9 5.445-9 10.817 0 6.065 4.935 11 11 11 2.106 0 4.123-.587 5.881-1.705l10.712 10.713A25.932 25.932 0 0 1 32 58C17.663 58 6 46.336 6 32 6 18.294 16.459 7.061 30 6.041m1-1.016C16.552 5.553 5 17.424 5 32c0 14.911 12.088 27 27 27a26.887 26.887 0 0 0 18.06-6.939L37.998 39.998A9.95 9.95 0 0 1 32 42c-5.521 0-10-4.478-10-10 0-5.185 3.948-9.447 9-9.949V5.025z"></path></g></svg>