<svg viewBox="0 0 64 64" xml:space="preserve" xmlns="http://www.w3.org/2000/svg"><g fill="#ffffff" class="fill-37474f"><path d="M15 27h13.586l1-1H15zM44.586 11H15v1h28.586zM39.586 16H15v1h23.586zM33.713 21.873l.873-.873H15v1h18.586z"></path><path d="m57.172 18.173-6.344-6.344c-.777-.778-1.803-1.167-2.828-1.167s-2.051.389-2.828 1.167L44 13.001 32.228 24.773 20 37.001l-2 2s1.958 5.042-3 10l.5.5-2 1.999c-1.933 1.934-1.709 3.5.5 3.5h3.001c.552 0 1.315-.316 1.706-.707l.793-.792.5.5c2.77-2.77 5.566-3.381 7.495-3.381 1.523 0 2.505.381 2.505.381l2-2 12.505-12.505L52 29.001V58H10V6h42v5.587l1 1V5H9v54h44V28.001l3-3 1.172-1.172a4.01 4.01 0 0 0 0-5.656zM18 53.586c-.201.201-.715.414-.999.414H14c-.632 0-.807-.158-.812-.158-.029-.092.06-.675 1.019-1.634l2-2 2.586 2.586-.793.792zm11.713-3.712a9.437 9.437 0 0 0-2.218-.254c-1.9 0-4.676.539-7.472 2.989l-3.631-3.631c3.608-4.109 3.114-8.147 2.735-9.69l.873-.873 10.586 10.586-.873.873zm1.58-1.58L20.707 37.708 44 14.415l10.586 10.586-23.293 23.293zm25.172-25.172-1.172 1.172-10.586-10.586 1.172-1.172c.563-.563 1.316-.874 2.121-.874s1.558.311 2.121.874l6.344 6.344a3.002 3.002 0 0 1 0 4.242z"></path><path d="m51.646 23.583.707.707L30.75 45.894l-.707-.708z"></path></g></svg>