<svg viewBox="0 0 64 64" xml:space="preserve" xmlns="http://www.w3.org/2000/svg"><path d="M27.5 14c3.713 0 7.426 1.415 10.255 4.244 5.66 5.657 5.66 14.854 0 20.511A14.457 14.457 0 0 1 27.499 43a14.452 14.452 0 0 1-10.255-4.245c-5.658-5.656-5.658-14.853 0-20.511A14.459 14.459 0 0 1 27.5 14zm0-1c-4.145 0-8.037 1.611-10.963 4.537S12 24.355 12 28.5s1.611 8.037 4.537 10.962A15.39 15.39 0 0 0 27.499 44c4.144 0 8.037-1.611 10.963-4.538A15.392 15.392 0 0 0 43 28.5c0-4.145-1.611-8.038-4.538-10.963A15.397 15.397 0 0 0 27.5 13z" fill="#ffffff" class="fill-37474f"></path><path d="M27.5 17c2.945 0 5.891 1.122 8.134 3.365 4.488 4.488 4.488 11.779 0 16.269C33.391 38.878 30.445 40 27.5 40s-5.891-1.122-8.135-3.366c-4.486-4.487-4.486-11.78 0-16.269A11.473 11.473 0 0 1 27.5 17zm0-1c-3.342 0-6.482 1.3-8.842 3.658-4.874 4.876-4.874 12.808 0 17.683C21.018 39.7 24.158 41 27.5 41s6.481-1.3 8.841-3.659c4.875-4.876 4.875-12.808 0-17.683A12.422 12.422 0 0 0 27.5 16z" fill="#ffffff" class="fill-37474f"></path><path d="M27.5 38.499a9.976 9.976 0 0 1-7.074-2.925.5.5 0 0 1 .707-.707c3.51 3.51 9.223 3.51 12.734 0 3.509-3.512 3.509-9.225 0-12.734a.5.5 0 0 1 .707-.707c3.898 3.899 3.898 10.247 0 14.148a9.977 9.977 0 0 1-7.074 2.925z" fill="#ffffff" class="fill-37474f"></path><path d="M39.92 47.041a.699.699 0 0 1-.304.445l-1.732 1c-.255.146-.681.066-.866-.157l-2.596-3.154-.355-.459-.347.131c-1.096.416-2.25.723-3.431.912l-.38.138-.738 4.535A.723.723 0 0 1 28.5 51h-2a.723.723 0 0 1-.671-.568l-.671-4.022-.076-.591-.37-.06a17.52 17.52 0 0 1-3.433-.911l-.387-.081-2.91 3.562c-.188.227-.611.306-.866.158l-1.732-1.001a.724.724 0 0 1-.297-.827l1.434-3.828.212-.523-.285-.233a17.7 17.7 0 0 1-2.52-2.52l-.232-.283-4.352 1.644c-.283.105-.682-.043-.828-.297l-1-1.733a.723.723 0 0 1 .156-.864l3.158-2.6.455-.353-.131-.347a17.383 17.383 0 0 1-.912-3.432l-.072-.372-4.601-.745A.727.727 0 0 1 5 29.5v-2c0-.308.266-.621.568-.671l4.03-.672.584-.08.059-.366c.188-1.18.496-2.335.912-3.432l.065-.4-3.548-2.897c-.236-.195-.31-.6-.156-.865l1-1.732c.147-.256.549-.397.827-.297l3.828 1.434.524.21.232-.283a17.7 17.7 0 0 1 2.52-2.52l.284-.231-1.645-4.354a.724.724 0 0 1 .297-.827l1.733-1c.251-.148.677-.069.864.156l2.6 3.158.353.455.347-.131a17.383 17.383 0 0 1 3.432-.912l.372-.072.745-4.601A.727.727 0 0 1 26.5 6h2c.308 0 .621.266.671.568l.672 4.03.08.583.366.06c1.18.188 2.334.495 3.432.911l.4.064L37.02 8.67c.185-.225.608-.304.864-.155l1.733 1.001c.261.15.402.545.297.827l-1.431 3.82-.22.527.29.236a17.714 17.714 0 0 1 2.519 2.52l.309.259 4.276-1.619c.279-.103.68.042.827.297l1.001 1.732a.726.726 0 0 1-.157.866l-3.153 2.596-.46.356.131.347c.415 1.093.722 2.247.911 3.43l.136.379 4.538.739A.725.725 0 0 1 50 27.5v2a.725.725 0 0 1-.568.672l-4.03.671-.585.086-.059.361a17.464 17.464 0 0 1-.911 3.431l-.082.387 3.564 2.912a.721.721 0 0 1 .157.864l-1 1.731c-.087.15-.264.254-.45.3l.758.758c.228-.142.425-.327.558-.557l1-1.732c.399-.692.229-1.631-.388-2.137l-3.056-2.517c.336-.943.596-1.923.775-2.921l3.913-.651A1.718 1.718 0 0 0 51 29.5v-2c0-.799-.617-1.526-1.404-1.657l-3.912-.652a18.525 18.525 0 0 0-.775-2.92l3.056-2.517a1.718 1.718 0 0 0 .388-2.138l-1.001-1.732c-.384-.668-1.315-1.006-2.044-.732l-3.692 1.382a18.865 18.865 0 0 0-2.146-2.146l1.383-3.693c.279-.749-.043-1.646-.734-2.044l-1.731-1c-.669-.387-1.654-.205-2.138.387l-2.516 3.055a18.477 18.477 0 0 0-2.922-.775l-.652-3.911C30.027 5.617 29.299 5 28.5 5h-2c-.799 0-1.527.617-1.657 1.404l-.652 3.911c-1 .181-1.979.44-2.921.776l-2.517-3.056c-.486-.593-1.471-.772-2.137-.387l-1.732 1a1.714 1.714 0 0 0-.732 2.044l1.382 3.693a18.465 18.465 0 0 0-2.147 2.146l-3.692-1.382c-.727-.272-1.659.063-2.044.732l-1 1.731c-.4.691-.23 1.631.387 2.138l3.055 2.517a18.436 18.436 0 0 0-.775 2.921l-3.911.652C4.617 25.973 4 26.701 4 27.5v2c0 .799.617 1.527 1.404 1.657l3.911.652c.181 1 .44 1.979.776 2.921l-3.056 2.516a1.716 1.716 0 0 0-.387 2.138l1 1.732c.385.667 1.312 1.008 2.044.733l3.692-1.383a18.865 18.865 0 0 0 2.147 2.147l-1.382 3.692a1.715 1.715 0 0 0 .732 2.044l1.732 1.001c.667.387 1.65.205 2.138-.388l2.516-3.055c.943.336 1.923.596 2.921.775l.652 3.911c.134.79.861 1.407 1.66 1.407h2c.799 0 1.526-.617 1.657-1.404l.652-3.911c1-.18 1.979-.44 2.921-.776l2.516 3.056c.486.593 1.47.775 2.138.388l1.733-1c.234-.136.407-.341.547-.566l-.744-.746z" fill="#ffffff" class="fill-37474f"></path><path d="M54.5 59.169c-.67 0-1.297-.259-1.768-.729L39.561 45.268a2.502 2.502 0 0 1 0-3.535l1.172-1.172a2.48 2.48 0 0 1 1.768-.729c.67 0 1.297.259 1.768.729l13.172 13.172a2.502 2.502 0 0 1 0 3.535l-1.172 1.172a2.488 2.488 0 0 1-1.769.729zm-12-18.338a1.49 1.49 0 0 0-1.061.437l-1.172 1.172a1.501 1.501 0 0 0 0 2.121l13.172 13.172c.563.563 1.559.563 2.121 0l1.172-1.172a1.501 1.501 0 0 0 0-2.121L43.561 41.268a1.49 1.49 0 0 0-1.061-.437z" fill="#ffffff" class="fill-37474f"></path><g fill="#ffffff" class="fill-37474f"><path d="M36.897 40.189c-.263.213-.536.41-.812.603l3.362 3.362a2.014 2.014 0 0 1 .024-1.39l-2.574-2.575zM39.793 37.086c-.193.275-.391.548-.603.812l2.575 2.574a2.014 2.014 0 0 1 1.39-.024l-3.362-3.362z"></path></g></svg>