<svg viewBox="0 0 64 64" xml:space="preserve" xmlns="http://www.w3.org/2000/svg"><path d="M17.07 21h1.055l.251 1.758c.068.546.569.931 1.114 1.009l1.52.154c.216.031.484.015.764.015.428 0 .881-.051 1.207-.116l.539-.115c.539-.108 1.09-.387 1.223-.92L25.25 21s.094-.5.75-.5.75.5.75.5l.508 1.78c.133.533.684.933 1.223 1.041l.539.045c.326.065.779.069 1.207.069.279 0 .549-.03.764-.062l1.52-.225c.545-.078 1.046-.342 1.114-.888l.25-1.76h1.115c.007.475.01.967.01 1.5 0 0 1-3.188 1-8 0-2.916-.5-7-4-7-1.458-1.708-3.946-2-7-2-7.5 0-9 4.5-9 9 0 4.971 1 8 1 8 0-.557.029-1.041.07-1.5zm7.702-.651-.515 2.061c-.087.347-.486.727-.836.797l-.54.107a6.077 6.077 0 0 1-1.108.091c-.264 0-.51-.015-.692-.041l-1.521-.217c-.32-.046-.648-.38-.688-.701l-.252-2.016a.526.526 0 0 1 .44-.576l1.521-.217c.262-.038.631-.06 1.013-.06.319 0 .617.016.836.043l2.016.252c.121.015.22.071.279.159.06.087.077.2.047.318zm8.356 2.096c-.04.321-.369.655-.688.701l-1.521.217a5.188 5.188 0 0 1-.692.041c-.412 0-.826-.034-1.109-.091l-.538-.107c-.352-.07-.75-.45-.836-.797l-.516-2.061a.384.384 0 0 1 .048-.317.383.383 0 0 1 .279-.159l2.016-.252c.22-.027.517-.043.836-.043.382 0 .751.021 1.014.06l1.519.217a.526.526 0 0 1 .441.576l-.253 2.015zm.67-2.445a1.012 1.012 0 0 0-.788-.642l-1.52-.217a8.256 8.256 0 0 0-1.084-.064c-.328 0-.649.016-.898.047l-2.016.252a.855.855 0 0 0-.731.624H25.24a.857.857 0 0 0-.731-.624l-2.016-.252a7.669 7.669 0 0 0-.898-.047c-.39 0-.787.022-1.084.064l-1.52.217a1.013 1.013 0 0 0-.789.642H17.19c.222-1.455.588-2.648.811-4.5.115-.951.209-1.269.486-1.269.555 0 1.848 1.269 5.514 1.269 4.36 0 6.676-2.635 8.072-2.635.365 0 .668.181.928.635 1.475 2.58 1.859 4.35 1.961 6.5h-1.164zM25 6.5c2.9 0 5.071.28 6.239 1.649l.3.351H32c.742 0 3 0 3 6 0 .264-.003.523-.009.777a18.971 18.971 0 0 0-1.123-2.273c-.538-.941-1.273-1.139-1.796-1.139-.762 0-1.489.4-2.41.908-1.396.77-3.135 1.727-5.662 1.727-2.418 0-3.668-.584-4.414-.932-.404-.188-.723-.337-1.1-.337-1.207 0-1.373 1.267-1.477 2.123A47.23 47.23 0 0 1 17 14.5c0-5.533 2.467-8 8-8zM34.53 26.873c.237-.796.397-1.597.442-2.379.01.001.018.006.028.006.55 0 1-.45 1-1v-1c0 .55-.45 1.5-1 1.5h-.885a.989.989 0 0 0-.141.437c-.059 1.009-.306 2.028-.681 3.009.399-.216.813-.403 1.237-.573zM46.493 40.959c-.272-1.634-1.811-3.223-3.435-3.547L38.5 36.5V36L32 34v-1.645a9.032 9.032 0 0 0-1 1.54v2.823a4.756 4.756 0 0 1-.987 1.024c-.002.087-.013.171-.013.258 0 .313.017.624.048.93.237-.146.456-.298.646-.45l-.453 1.554c.134.575.321 1.128.559 1.655l1.877-6.435 4.824 1.484v1.585l-1.871.748-1.408.563 1.072 1.072 1.362 1.362-2.729 3.358c.277.189.565.363.864.521L38 42l-2-2 2.5-1v-1.48l4.363.873c1.205.241 2.441 1.517 2.644 2.73l.253 1.521c.05.297.084.713.104 1.164.333-.393.629-.816.892-1.263-.004-.021-.006-.047-.009-.066l-.254-1.52z" fill="#ffffff" class="fill-37474f"></path><path d="M39 50c-.147 0-.291-.017-.438-.022L26 57.821l-.567-.354 7.446-9.164c-.289-.172-.57-.354-.843-.549l-4.689 5.772 2.329-7.987a11.906 11.906 0 0 1-.741-1.028l-2.947 10.105L21.3 38.472c.94.759 2.448 1.528 4.701 1.528.417 0 .8-.033 1.167-.081a11.51 11.51 0 0 1-.121-.989c-.326.043-.672.07-1.046.07-3.182 0-4.613-1.712-5.001-2.28v-4.07c1.488 1.42 3.24 2.35 5 2.35.485 0 .97-.077 1.449-.209.113-.408.245-.808.399-1.197-.616.256-1.239.406-1.848.406-3.607 0-7.707-4.916-7.975-9.563a.98.98 0 0 0-.141-.437h-.885c-.55 0-1-.95-1-1.5v1c0 .55.45 1 1 1 .01 0 .018-.005.027-.006.141 2.44 1.302 5.074 2.973 7.094V34l-6.5 2v.501l-4.559.911c-1.625.324-3.162 1.913-3.435 3.547l-.253 1.521c-.141.84-.18 2.413-.088 3.514L26 59l14.609-9.121C40.081 49.95 39.547 50 39 50zM14.5 36.738l4.823-1.483 5.251 18.081-9.227-11.269 1.359-1.36 1.072-1.072-1.408-.563-1.87-.749v-1.585zm-8.367 8.679c-.042-.959 0-2.132.107-2.773l.253-1.521c.206-1.235 1.417-2.485 2.645-2.73l4.362-.873V39l2.5 1-2 2 11.552 14.108-.354 1.212L6.133 45.417z" fill="#ffffff" class="fill-37474f"></path><path d="m58.293 54.293-8.586-8.586a.998.998 0 0 0-.707-.291c-.159 0-.313.051-.458.126l-.836-.836A10.938 10.938 0 0 0 50 38c0-6.075-4.925-11-11-11s-11 4.925-11 11 4.925 11 11 11c2.527 0 4.849-.861 6.706-2.294l.836.836a.993.993 0 0 0 .165 1.165l8.586 8.586c.194.194.451.291.707.291s.513-.097.707-.291l1.586-1.586a1.003 1.003 0 0 0 0-1.414zM29 38c0-5.522 4.478-10 10-10s10 4.478 10 10-4.478 10-10 10-10-4.478-10-10zm18.058 7.472.735.735-.586.586-.735-.735c.202-.189.397-.384.586-.586zM56 56.586 47.414 48l1.583-1.584H49v-.002L57.586 55 56 56.586z" fill="#ffffff" class="fill-37474f"></path></svg>