<svg viewBox="0 0 64 64" xml:space="preserve" xmlns="http://www.w3.org/2000/svg"><g fill="#ffffff" class="fill-37474f"><path d="M6 32c0-.766.441-1.426 1.077-1.762.063-.408.158-.807.314-1.176A3.007 3.007 0 0 0 5 32a2.997 2.997 0 0 0 2.514 2.951 4.901 4.901 0 0 1-.426-1.184A1.995 1.995 0 0 1 6 32zM30 36.544c1.758-.773 3-2.504 3-4.544s-1.243-3.768-3-4.541V21c0-1.158-.631-2-1.5-2s-1.5.842-1.5 2v.221C25.239 23.225 21.35 27 17 27h-5a4 4 0 0 0-4 4v2c0 1.657 1.791 4 4 4h.793l1.105 6.271a2.007 2.007 0 0 0 2.317 1.623 2.005 2.005 0 0 0 1.623-2.316L16.854 37H17c4.4 0 8.253 3.757 10 5.765V43c0 1.158.631 2 1.5 2s1.5-.842 1.5-2v-6.456zm-13.147 6.207a.995.995 0 0 1-.167.745.985.985 0 0 1-.817.428c-.479 0-.903-.355-.986-.827L13.808 37h2.03l1.015 5.751zM17 36h-5c-1.627 0-3-1.843-3-3v-2c0-1.654 1.346-3 3-3h5c4.194 0 7.901-3.098 10-5.291V41.27C24.915 39.076 21.235 36 17 36zm12 7c0 .55-.225 1-.5 1s-.5-.45-.5-1V21c0-.55.225-1 .5-1s.5.45.5 1v22zm3-11c0 1.48-.806 2.766-2 3.457v-6.91c1.193.691 2 1.974 2 3.453zM50.011 23.989c4.411 0 8 3.589 8 8s-3.589 8-8 8a8.01 8.01 0 0 1-7.848-6.454.996.996 0 0 0-.665-.756L38.162 32l3.333-.778a.997.997 0 0 0 .665-.759 8.007 8.007 0 0 1 7.851-6.474m0-1c-4.383 0-8.03 3.135-8.832 7.284L35 32l6.182 1.728c.811 4.138 4.454 7.262 8.829 7.262a9 9 0 0 0 0-18.001zM35.975 39.775l4.272 4.883A1 1 0 0 0 41 45h8c2.206 0 4 1.794 4 4v5c0 2.206-1.794 4-4 4H36c-2.206 0-4-1.794-4-4v-5c0-2.206 1.794-4 4-4a.998.998 0 0 0 .97-1.242l-.995-3.983M34 36l2 8c-2.75 0-5 2.25-5 5v5c0 2.75 2.25 5 5 5h13c2.75 0 5-2.25 5-5v-5c0-2.75-2.25-5-5-5h-8l-7-8zM54 6v13H41a.999.999 0 0 0-.753.342l-4.272 4.883.995-3.982a.995.995 0 0 0-.182-.857A.996.996 0 0 0 36 19h-2V6h20m1-1H33v15h3l-2 8 7-8h14V5z"></path><path d="M36 53h6v1h-6zM36 49h13v1H36zM37 14h11v1H37zM37 10h14v1H37zM46 33h7v1h-7zM46 29h8v1h-8z"></path></g></svg>